<?xml version="1.0" encoding="utf-8"?>
<!-- Leash logo — white on transparent, SVG vector -->
<svg xmlns="http://www.w3.org/2000/svg"
     viewBox="175 370 1175 325">

  <!-- Icon mark: two potrace-traced paths from original Lindner logo -->
  <!-- transform maps potrace internal coords → original image pixel coords -->
  <g transform="translate(0,890) scale(0.1,-0.1)" fill="white">
    <path d="M2909 5008 c-9 -7 -34 -44 -56 -83 -546 -945 -753 -1309 -753 -1325
0 -23 784 -1388 808 -1408 12 -9 192 -12 823 -12 l808 0 19 28 c40 57 362 623
362 636 0 8 -7 22 -16 30 -14 14 -135 16 -1179 16 l-1165 0 -15 24 c-14 20
-14 29 -4 48 12 24 283 495 469 818 496 858 680 1181 680 1194 0 8 -7 22 -16
30 -13 14 -62 16 -383 16 -279 0 -371 -3 -382 -12z"/>
    <path d="M4523 4962 c-11 -7 -104 -165 -581 -992 -207 -358 -187 -317 -168
-345 l16 -25 755 0 c672 0 755 2 769 16 9 8 16 22 16 30 0 8 -68 133 -151 277
-504 871 -592 1023 -601 1035 -12 14 -37 16 -55 4z"/>
  </g>

  <!-- "Leash" text — Futura Medium, converted to paths by inkscape -->
  <!-- transform: scale 1.0158, positioned to match original text area (x=581, y=419..641) -->
  <path fill="white"
        transform="matrix(1.0158,0,0,1.0158,546.5,336.3)"
        d="M 64.086914,100.21484 V 271.6626 H 122.83203 V 300 H 33.937988 V 100.21484 Z
           M 288.63721,243.84277 h -90.31739 q 1.16455,15.52735 10.09278,24.71436
           8.92822,9.05762 22.90283,9.05762 10.86914,0 17.98584,-5.17579
           6.9873,-5.17578 15.91553,-19.15039 l 24.58496,13.71582
           q -5.69336,9.70459 -12.03369,16.6919 -6.34034,6.85791 -13.58643,11.38672
           -7.24609,4.39941 -15.65674,6.46972 -8.41064,2.07032 -18.24463,2.07032
           -28.208,0 -45.28808,-18.11524 -17.08008,-18.24463 -17.08008,-48.39355
           0,-29.89014 16.5625,-48.39356 16.69189,-18.24463 44.25293,-18.24463
           27.81982,0 43.99414,17.72705 16.04492,17.59766 16.04492,48.78174 z
           m -29.89014,-23.80859 q -6.08154,-23.29102 -29.37256,-23.29102
           -5.30517,0 -9.96338,1.68213 -4.6582,1.55274 -8.54004,4.65821
           -3.75244,2.97607 -6.46972,7.24609 -2.71729,4.27002 -4.14063,9.70459 z
           M 441.37354,173.96973 H 470.6167 V 300 h -29.24316 v -13.19824
           q -17.98584,16.82129 -38.68897,16.82129 -26.1377,0 -43.21777,-18.8916
           -16.95069,-19.27979 -16.95069,-48.13477 0,-28.3374 16.95069,-47.229
           16.95068,-18.89161 42.4414,-18.89161 21.99707,0 39.46534,18.11524 z
           m -69.09668,62.62695 q 0,18.11523 9.70459,29.50195
           9.96337,11.51612 25.10253,11.51612 16.17432,0 26.1377,-11.12793
           9.96338,-11.51612 9.96338,-29.24317 0,-17.72705 -9.96338,-29.24316
           -9.96338,-11.25733 -25.87891,-11.25733 -15.00976,0 -25.10254,11.38672
           -9.96337,11.51612 -9.96337,28.4668 z
           m 236.32519,-41.14746 -24.06738,12.81006
           q -5.69336,-11.64551 -14.10401,-11.64551 -4.01123,0 -6.85791,2.71728
           -2.84668,2.5879 -2.84668,6.72852 0,7.24609 16.82129,14.36279
           23.16162,9.96338 31.18409,18.37403 8.02246,8.41064 8.02246,22.64404
           0,18.24463 -13.45704,30.53711 -13.06884,11.64551 -31.57226,11.64551
           -31.70166,0 -44.8999,-30.9253 l 24.84375,-11.51611
           q 5.17578,9.05762 7.89306,11.51611 5.30518,4.917 12.68067,4.917
           14.75097,0 14.75097,-13.45704 0,-7.76367 -11.38671,-14.49218
           -4.39942,-2.19971 -8.79883,-4.27002 -4.39942,-2.07031 -8.92823,-4.27002
           -12.68066,-6.21094 -17.85644,-12.42188 -6.59912,-7.89306
           -6.59912,-20.31494 0,-16.4331 11.25732,-27.17285
           11.51612,-10.73975 27.94922,-10.73975 24.19678,0 35.97168,24.97315 z
           M 670.8916,81.452637 h 29.11377 V 184.45068
           q 15.52734,-13.97461 34.28955,-13.97461 21.3501,0 34.16016,13.84522
           10.86914,12.03369 10.86914,38.43017 V 300 h -29.11377 v -74.53125
           q 0,-15.13916 -5.43457,-21.86768 -5.30518,-6.85791 -17.20947,-6.85791
           -15.26856,0 -21.4795,9.4458 -6.08154,9.5752 -6.08154,32.86622 V 300
           H 670.8916 Z"/>

</svg>
